<svg width="125" height="24" viewBox="0 0 125 24" fill="none" xmlns="http://www.w3.org/2000/svg">
<g clip-path="url(#clip0_34_7)">
<path d="M20.0854 6.61313C19.7891 6.63039 19.4956 6.6812 19.2107 6.76459C18.9144 6.83367 18.6286 6.94236 18.3613 7.08772C18.0577 7.25237 17.798 7.4874 17.6039 7.77309C17.3901 8.08955 17.201 8.42208 17.0385 8.76771C16.4208 10.1141 15.4889 12.2177 14.2427 15.0787C12.9965 17.9397 11.72 20.9135 10.4132 24H9.25195C7.91906 20.7182 6.62993 17.5535 5.38456 14.5057C4.13918 11.4579 3.29771 9.40049 2.86015 8.33351C2.75341 8.07763 2.60356 7.84197 2.41712 7.63678C2.2005 7.41435 1.9526 7.22471 1.68125 7.07383C1.42134 6.92309 1.13939 6.81406 0.845676 6.75071C0.568252 6.68068 0.285316 6.63465 0 6.61313V5.71191H8.15636V6.61565C7.56763 6.64303 6.98123 6.70753 6.40063 6.80877C5.92352 6.90217 5.6837 7.06121 5.6837 7.30608C5.68567 7.41795 5.7057 7.52877 5.74302 7.63425C5.7771 7.76047 5.81118 7.86523 5.83643 7.94097C6.18395 8.7715 6.74101 10.1279 7.50758 12.0103C8.27416 13.8927 9.36807 16.5685 10.7893 20.0379C11.4928 18.4711 12.3035 16.6157 13.2216 14.4716C14.1341 12.3334 14.7564 10.8642 15.072 10.064C15.294 9.54676 15.4721 9.01182 15.6046 8.46478C15.6483 8.22432 15.6732 7.98082 15.6791 7.73649C15.6769 7.63875 15.6505 7.54307 15.6023 7.45803C15.5541 7.373 15.4855 7.30127 15.4027 7.24928C15.1693 7.09758 14.9138 6.98304 14.6453 6.90975C14.3387 6.82655 14.0272 6.76248 13.7126 6.71789C13.3995 6.6775 13.0815 6.64342 12.7571 6.61565V5.71191H20.0917L20.0854 6.61313Z" fill="#4A4A4A"/>
<path d="M45.9819 18.4501L45.6032 23.7703H29.2413V22.864C29.5126 22.8463 29.8875 22.8135 30.3469 22.7542C30.654 22.7325 30.9576 22.6761 31.2519 22.5863C31.5072 22.4914 31.7231 22.3136 31.8654 22.0814C31.9918 21.8433 32.0524 21.5758 32.0408 21.3065V8.33354C32.0479 8.07671 31.9966 7.82163 31.8906 7.58757C31.7517 7.33758 31.5237 7.14918 31.2519 7.05997C30.9262 6.92834 30.5878 6.83022 30.2422 6.76714C29.9088 6.69668 29.5717 6.64526 29.2324 6.61315V5.70942H44.4925V10.0615H43.4474C43.195 9.30197 42.787 8.60341 42.2495 8.01041C41.8288 7.40789 41.1989 6.98358 40.4824 6.82016C40.1997 6.78481 39.8602 6.76083 39.4601 6.73937C39.0599 6.71792 38.6005 6.71665 38.0969 6.71665H35.0032V13.8948H37.2272C37.7548 13.9189 38.2828 13.8558 38.7898 13.708C39.1269 13.5798 39.4258 13.3678 39.6582 13.092C39.8889 12.797 40.065 12.4632 40.1782 12.1063C40.3153 11.7296 40.4101 11.3389 40.461 10.9412H41.5061V18.0172H40.461C40.4196 17.576 40.3186 17.1424 40.1606 16.7284C40.0522 16.3721 39.8812 16.0379 39.6557 15.7414C39.4011 15.4319 39.0601 15.2052 38.6762 15.0901C38.2012 14.9753 37.7132 14.9235 37.2247 14.9361H35.0032V20.3497C34.9911 20.7812 35.0335 21.2125 35.1294 21.6334C35.1961 21.923 35.3685 22.1773 35.6129 22.3465C35.9132 22.5259 36.2511 22.6331 36.5999 22.6595C37.019 22.7025 37.6097 22.7277 38.3771 22.7277H39.5913C40.0962 22.7277 40.5153 22.7088 40.8611 22.6747C41.226 22.6358 41.5881 22.5743 41.9453 22.4904C42.2389 22.4379 42.5145 22.3125 42.7468 22.1256C43.2804 21.5772 43.7322 20.9549 44.0886 20.2778C44.4383 19.6943 44.7385 19.0825 44.986 18.4488L45.9819 18.4501ZM40.1555 2.45419C39.7499 2.64184 39.1188 2.92373 38.2622 3.29987C37.4027 3.67853 36.4383 4.10768 35.3592 4.59237L34.9212 4.09632C35.7668 3.35919 36.4522 2.75207 36.9874 2.27118C37.5226 1.79028 38.0413 1.30307 38.5614 0.798184C38.8014 0.555503 39.0747 0.348116 39.373 0.182229C39.6175 0.0615331 39.8867 -0.000689498 40.1593 0.000471626C40.4857 -0.0078812 40.8053 0.0949284 41.0656 0.29204C41.1826 0.373495 41.2781 0.482045 41.344 0.608424C41.41 0.734804 41.4443 0.875261 41.4442 1.01781C41.452 1.17927 41.4239 1.34044 41.362 1.48973C41.3 1.63902 41.2056 1.77271 41.0858 1.88115C40.8068 2.11863 40.4931 2.31189 40.1555 2.45419Z" fill="#4A4A4A"/>
<path d="M72.3612 18.4021L71.9409 23.7715H56.5332V22.8653C56.7541 22.8476 57.0759 22.8198 57.5013 22.7794C57.8016 22.7603 58.0984 22.704 58.3848 22.6116C58.6342 22.5234 58.8462 22.3529 58.9857 22.1281C59.1241 21.8795 59.1901 21.597 59.1763 21.3127V8.38526C59.1847 8.12169 59.1315 7.8598 59.021 7.62037C58.8828 7.37139 58.6583 7.1815 58.3899 7.08645C58.1019 6.95973 57.8033 6.85878 57.4975 6.78479C57.1838 6.70155 56.8638 6.64372 56.5408 6.61187V5.71191H64.8562V6.61565C64.5172 6.63594 64.1799 6.6781 63.8464 6.74187C63.4375 6.82602 63.1383 6.89544 62.949 6.95014C62.8101 6.98571 62.6804 7.0508 62.5689 7.14097C62.4574 7.23115 62.3666 7.34428 62.3027 7.47269C62.185 7.71877 62.1258 7.98878 62.1298 8.26156V20.385C62.1195 20.8225 62.1507 21.2599 62.2232 21.6914C62.2652 21.9769 62.4152 22.2353 62.6423 22.4134C62.9306 22.5879 63.2574 22.6889 63.594 22.7075C64.1813 22.7628 64.7711 22.7872 65.361 22.7807C65.7031 22.7807 66.0603 22.7731 66.4364 22.7542C66.7872 22.7387 67.1369 22.7046 67.4841 22.6519C67.7884 22.6058 68.0885 22.5353 68.3815 22.4412C68.6109 22.3839 68.8211 22.2672 68.9911 22.1029C69.4897 21.5558 69.9343 20.9619 70.319 20.3295C70.725 19.7211 71.0745 19.0768 71.3628 18.4046L72.3612 18.4021Z" fill="#4A4A4A"/>
<path d="M98.8291 18.4501L98.4631 23.7703H82.0835V22.864C82.3637 22.8463 82.7348 22.8135 83.1942 22.7542C83.5003 22.7319 83.803 22.6756 84.0967 22.5863C84.3541 22.4917 84.5726 22.3141 84.7177 22.0814C84.8424 21.8428 84.9017 21.5754 84.8893 21.3064V8.33351C84.8963 8.07643 84.8441 7.82119 84.7366 7.58755C84.5986 7.33632 84.3696 7.14752 84.0967 7.05995C83.7708 6.92866 83.4325 6.83056 83.0869 6.76712C82.7536 6.6961 82.4165 6.64468 82.0771 6.61313V5.71191H97.3372V10.064H96.2921C96.0414 9.30341 95.6328 8.60443 95.093 8.01291C94.6742 7.41245 94.0478 6.98842 93.3347 6.82265C93.047 6.78731 92.7036 6.76333 92.306 6.74187C91.9085 6.72041 91.4566 6.71915 90.9466 6.71915H87.8492V13.8973H90.0707C90.5983 13.923 91.1266 13.8599 91.6333 13.7105C91.9715 13.583 92.2714 13.371 92.5042 13.0945C92.7357 12.7995 92.913 12.4657 93.028 12.1088C93.1619 11.7315 93.2546 11.3409 93.3044 10.9437H94.3559V18.0197H93.3044C93.2639 17.5791 93.1655 17.1458 93.0116 16.7309C92.9034 16.3745 92.7324 16.0403 92.5067 15.7439C92.2547 15.4316 91.9128 15.2042 91.5273 15.0926C91.0515 14.9772 90.5626 14.9254 90.0732 14.9386H87.8517V20.3535C87.841 20.7849 87.8834 21.216 87.978 21.6371C88.047 21.9267 88.2205 22.1806 88.4652 22.3503C88.767 22.5283 89.1054 22.6353 89.4547 22.6633C89.8662 22.7062 90.4645 22.7315 91.2332 22.7315H92.4411C92.9397 22.7315 93.365 22.7125 93.7033 22.6784C94.0706 22.6389 94.4352 22.5773 94.7951 22.4942C95.0872 22.4416 95.3615 22.3166 95.5928 22.1307C96.1237 21.5809 96.5742 20.9588 96.9308 20.2828C97.2805 19.6993 97.5807 19.0875 97.8282 18.4539L98.8291 18.4501Z" fill="#4A4A4A"/>
<path d="M124.898 18.132L124.24 23.7715H108.399V23.326L120.809 6.72168H116.265C115.733 6.72168 115.287 6.73051 114.938 6.7444C114.609 6.7608 114.281 6.79705 113.957 6.85295C113.14 7.08832 112.417 7.57387 111.889 8.24137C111.164 8.99211 110.58 9.86785 110.165 10.8264H109.193L109.779 5.71191H124.557V6.15747L112.142 22.7643H116.828C117.669 22.7621 118.509 22.7115 119.344 22.6128C119.96 22.6044 120.561 22.4229 121.078 22.089C121.722 21.5226 122.289 20.8732 122.762 20.1578C123.211 19.5235 123.596 18.8471 123.914 18.1383L124.898 18.132Z" fill="#4A4A4A"/>
</g>
<defs>
<clipPath id="clip0_34_7">
<rect width="125" height="24" fill="white"/>
</clipPath>
</defs>
</svg>
