<svg width="67" height="40" viewBox="0 0 67 40" fill="none" xmlns="http://www.w3.org/2000/svg">
<path fill-rule="evenodd" clip-rule="evenodd" d="M59.8013 40V6.86219H66.0919V0.000393709H45.5061V6.86219H51.7975V35.111L57.6571 40H59.8013ZM9.98425 39.469C9.59348 39.7893 9.02268 40 8.51176 40H7.77039C6.87894 40 5.95715 39.8097 5.14566 39.4792C4.33418 39.1389 3.54278 38.6173 2.92195 37.9965C2.29049 37.365 1.76972 36.574 1.42937 35.7625C1.08762 34.933 0.910605 34.0449 0.908203 33.1477V6.86219C0.908203 5.98058 1.09847 5.06904 1.42937 4.23746C1.77432 3.40436 2.28172 2.64829 2.92195 2.01335C3.55302 1.39213 4.33418 0.861515 5.14566 0.520769C5.95715 0.190266 6.87854 0 7.77039 0H13.4906C14.3718 0 15.2936 0.180417 16.1153 0.520769C16.937 0.861121 17.7182 1.39213 18.339 2.01335C18.9602 2.63457 19.4913 3.41612 19.832 4.23746C20.1727 5.05879 20.3528 5.98058 20.3528 6.86219V15.9981H12.3486V8.57497C12.3486 8.14441 12.1583 7.67367 11.8475 7.36287C11.5371 7.05206 11.0561 6.86219 10.6256 6.86219C10.1848 6.86219 9.71402 7.0623 9.41345 7.36287C9.10304 7.67367 8.92262 8.14402 8.92262 8.57497V31.4349C8.92262 31.8654 9.13298 32.3563 9.41345 32.6371C9.72426 32.9476 10.1946 33.1477 10.6256 33.1477C11.0664 33.1477 11.547 32.9373 11.8475 32.6371C12.1382 32.3464 12.3486 31.8654 12.3486 31.4349V21.7179H20.3524V27.628C20.3524 28.6199 20.1121 29.6618 19.7016 30.5332C19.2907 31.4349 18.6297 32.2661 17.8884 32.8873L9.98425 39.469Z" fill="#4A4A4A"/>
<path fill-rule="evenodd" clip-rule="evenodd" d="M54.0909 40.0005H12.9095L33.4953 22.8604L54.0909 40.0005Z" fill="#4A4A4A"/>
<path fill-rule="evenodd" clip-rule="evenodd" d="M45.3059 29.7118L38.9748 0H28.0256L21.6948 29.7118L33.4953 19.8846V19.8944L45.3059 29.7118ZM31.2113 17.601L33.4949 6.86219V6.89212L35.7891 17.601H31.2113Z" fill="#4A4A4A"/>
</svg>
