<svg width="91" height="28" viewBox="0 0 91 28" fill="none" xmlns="http://www.w3.org/2000/svg">
<path d="M30.7205 24.1739C30.0479 24.1561 29.4733 23.6037 29.4733 22.9222V0.605957H22.1236V25.2073C22.1236 26.4144 23.0991 27.3988 24.2973 27.3988H37.1526C38.3597 27.3988 39.3263 26.4144 39.3263 25.2073V0.605957H31.9766L31.9677 22.9222C31.9722 23.6037 31.3976 24.1561 30.7205 24.1739ZM55.3486 0.605957H44.2172C42.8987 0.605957 41.8252 1.675 41.8252 3.00685V27.3944H49.1882V5.02467C49.1927 4.3387 49.7495 3.79527 50.431 3.79527C51.1169 3.79527 51.6693 4.32533 51.6871 5.00239V27.3944H59.0189V5.00685C59.0279 4.32979 59.5802 3.79972 60.2662 3.79972C60.9477 3.79972 61.5089 4.34315 61.5134 5.02912V27.3944H68.8764V3.00685C68.8764 1.675 67.8029 0.605957 66.4844 0.605957H55.3486ZM12.2795 5.06921C12.284 4.32533 11.6782 3.79527 11.0323 3.79527H9.78509V17.3454H11.0323C11.6826 17.3454 12.284 16.8287 12.2795 16.0893V5.06921ZM17.2149 20.6639H9.78509V27.3944H2.43542V0.605957H17.2639C18.5913 0.605957 19.6292 1.68391 19.6292 3.02021V18.2496C19.6247 19.5859 18.5512 20.6639 17.2149 20.6639Z" fill="#4A4A4A"/>
<path d="M81.2149 17.3498V5.01576C81.1971 4.33424 80.6492 3.80863 79.9632 3.80863C79.2862 3.80863 78.7249 4.35206 78.716 5.03357V17.3498H81.2149ZM81.2149 27.3944V20.6683H78.716V27.3944H71.3663V3.00685C71.3663 1.675 72.4398 0.605957 73.7583 0.605957H86.1726C87.4911 0.605957 88.5646 1.675 88.5646 3.00685V27.3944H81.2149Z" fill="#4A4A4A"/>
</svg>
