<svg width="89" height="10" viewBox="0 0 89 10" fill="none" xmlns="http://www.w3.org/2000/svg">
<g clip-path="url(#clip0_10_37)">
<path d="M27.2197 0.5L26.8021 2.40754L27.0936 2.45072C27.1389 2.36829 27.1862 2.29176 27.2335 2.21915C27.2807 2.14653 27.328 2.07785 27.3753 2.01505C27.4245 1.95028 27.4718 1.88945 27.5211 1.8345C27.5703 1.77955 27.6215 1.72852 27.6727 1.67946C27.7239 1.6304 27.7771 1.58722 27.8283 1.54601C27.8815 1.5048 27.9347 1.46751 27.9898 1.43415C28.045 1.39882 28.1001 1.36939 28.1573 1.33995C28.2144 1.31051 28.2715 1.285 28.3306 1.26145C28.3897 1.2379 28.4488 1.21827 28.5098 1.19865C28.5709 1.17902 28.6339 1.16332 28.697 1.14959C29.0791 1.06324 29.5065 1.04361 30.0009 1.02791H31.4487V8.37745C31.4368 8.59725 31.3206 8.78761 31.0981 8.94658C30.8893 9.10554 30.6352 9.186 30.3377 9.186H30.1033V9.5H34.5687V9.186H34.354C34.0546 9.186 33.7946 9.10554 33.574 8.94658C33.3534 8.78761 33.2431 8.59725 33.2431 8.37745V1.02595H34.6908C36.0066 1.06716 36.8634 1.13192 37.6001 2.45072L37.8936 2.40754L37.476 0.5H27.2157L27.2197 0.5Z" fill="white"/>
<path d="M7.05771 0.513681L2.5904 8.39113C2.41116 8.65803 2.19646 8.85232 1.9463 8.97596C1.6607 9.11529 1.381 9.18398 1.10721 9.18398H0.951599V9.49798H4.71375V9.18398H4.46951C4.23511 9.18398 3.7742 9.10548 3.59102 8.94456C3.4098 8.78559 3.3901 8.55991 3.53192 8.26946L4.43996 6.6818H8.97818L10.0536 8.40095C10.1246 8.62663 10.0871 8.80914 9.94531 8.94259C9.7641 9.10156 9.56319 9.18202 9.34258 9.18202H9.18697V9.49602H13.7449V9.18202H13.609C13.349 9.18202 13.0772 9.11333 12.7915 8.97399C12.5059 8.83466 12.2656 8.59916 12.0706 8.26946L7.30589 0.511719H7.05771V0.513681ZM6.60862 2.89026L8.67091 6.18922H4.7236L6.60862 2.89026Z" fill="white"/>
<path d="M45.2386 0.513672H38.9769V0.829633H39.2487C39.5599 0.829633 39.814 0.904208 40.009 1.05336C40.2178 1.20447 40.3281 1.39287 40.34 1.62248V8.37543C40.3262 8.59522 40.2159 8.78559 40.009 8.94455C39.814 9.10547 39.5599 9.18397 39.2487 9.18397H38.9769V9.49601H47.5393L48.4946 7.14494H48.1794C48.01 7.50408 47.7894 7.82396 47.5176 8.10264C47.2458 8.38328 46.9011 8.60111 46.4855 8.76204C46.0817 8.91119 45.5755 8.98772 44.9648 8.98772H42.1186V5.27468H45.1914C45.5144 5.28057 45.7567 5.35907 45.9202 5.51411C46.1014 5.66326 46.192 5.85362 46.192 6.08323V6.24808H46.5288V3.79104H46.192V3.95589C46.192 4.17569 46.1014 4.36605 45.9202 4.52501C45.7567 4.68005 45.5124 4.76051 45.1914 4.76443H42.1186V1.02196H45.8433C46.2333 1.02196 46.5386 1.11616 46.7592 1.30652C46.9799 1.48511 47.0902 1.72061 47.0902 2.01106V2.20534H47.4053V0.515634H45.2406L45.2386 0.513672Z" fill="white"/>
<path d="M74.0437 0.513672H67.782V0.829633H68.0538C68.365 0.829633 68.6191 0.904208 68.8141 1.05336C69.0229 1.20447 69.1332 1.39287 69.1451 1.62248V8.37543C69.1313 8.59522 69.021 8.78559 68.8141 8.94455C68.6191 9.10547 68.365 9.18397 68.0538 9.18397H67.782V9.49601H76.3444L77.2997 7.14494H76.9845C76.8151 7.50408 76.5945 7.82396 76.3227 8.10264C76.0509 8.38328 75.7062 8.60111 75.2906 8.76204C74.8868 8.91119 74.3806 8.98772 73.7699 8.98772H70.9237V5.27468H73.9965C74.3195 5.28057 74.5618 5.35907 74.7253 5.51411C74.9065 5.66326 74.9971 5.85362 74.9971 6.08323V6.24808H75.3339V3.79104H74.9971V3.95589C74.9971 4.17569 74.9065 4.36605 74.7253 4.52501C74.5618 4.68005 74.3175 4.76051 73.9965 4.76443H70.9237V1.02196H74.6484C75.0384 1.02196 75.3437 1.11616 75.5643 1.30652C75.785 1.48511 75.8953 1.72061 75.8953 2.01106V2.20534H76.2104V0.515634H74.0457L74.0437 0.513672Z" fill="white"/>
<path d="M64.3882 0.513672V9.49797H62.6332V0.513672H64.3882ZM62.6923 8.37543V9.49797H61.1125V9.18397H61.3844C61.7232 9.18397 62.0088 9.10351 62.2432 8.94455C62.4894 8.78559 62.6194 8.59522 62.6332 8.37543H62.6923ZM64.3291 8.37543H64.3882C64.4 8.59522 64.5241 8.78559 64.7585 8.94455C65.0047 9.10351 65.3041 9.18397 65.6547 9.18397H65.8891L65.9088 9.49797H64.3291V8.37543ZM64.3291 1.63818V0.513672H65.9088L65.8911 0.829633H65.6567C65.3061 0.829633 65.0067 0.910096 64.7605 1.06906C64.5261 1.21821 64.4039 1.40857 64.3902 1.63818H64.3311H64.3291ZM62.6923 1.63818H62.6332C62.6194 1.40857 62.4914 1.21821 62.2432 1.06906C62.0088 0.910096 61.7173 0.829633 61.3666 0.829633H61.1125V0.513672H62.6923V1.63818Z" fill="white"/>
<path d="M81.8871 0.513672V9.49797H80.1124V0.513672H81.8871ZM86.898 8.98772L87.034 9.49797H81.8477V8.98772H86.8961H86.898ZM88.0484 7.1469L87.093 9.49797H83.9947L84.5167 8.98772C85.1273 8.98772 85.6335 8.91315 86.0373 8.764C86.4529 8.60504 86.7976 8.38524 87.0714 8.1046C87.3432 7.82396 87.5658 7.50604 87.7332 7.1469H88.0484ZM80.1518 8.37543L80.3665 9.49797H78.7493V9.18397H79.0212C79.3324 9.18397 79.5865 9.10351 79.7815 8.94455C79.9903 8.78559 80.1006 8.59522 80.1124 8.37543H80.1518ZM81.83 1.63818V0.513672H83.2521V0.829633H83.0177C82.7065 0.829633 82.4386 0.910096 82.218 1.06906C81.9974 1.21821 81.8871 1.40857 81.8871 1.63818H81.828H81.83ZM80.1518 1.63818H80.1124C80.1006 1.40857 79.9824 1.21821 79.7618 1.06906C79.553 0.910096 79.293 0.829633 78.9818 0.829633H78.7474V0.513672H80.1518V1.63818Z" fill="white"/>
<path d="M15.1808 0.5137V0.829662H15.4546C15.754 0.829662 16.0061 0.904236 16.2149 1.05339C16.3823 1.1731 16.4867 1.31832 16.5261 1.48906V8.50302C16.4848 8.66983 16.3804 8.81702 16.2149 8.94458C16.0061 9.10354 15.754 9.184 15.4546 9.184H15.1808V9.49604H19.6442L19.6264 9.184H19.3921C19.0927 9.184 18.8346 9.10943 18.612 8.95831C18.4033 8.79935 18.2989 8.6031 18.2989 8.37349V1.02591C18.3777 1.03376 18.5608 1.03572 18.8642 1.03572C19.2404 1.02591 20.3237 1.02591 20.8063 1.03572C21.1313 1.0475 21.4307 1.09067 21.7025 1.17114C21.9881 1.23982 22.2422 1.35169 22.4628 1.50083C22.6972 1.64017 22.8784 1.81876 23.0084 2.03856C23.1384 2.25836 23.2172 2.52329 23.2428 2.83337C23.2566 2.99233 23.2507 3.14344 23.2231 3.28278C23.1975 3.4123 23.166 3.5222 23.1266 3.61248C22.971 4.03049 22.7484 4.34056 22.4628 4.54074C22.1772 4.72914 21.866 4.85081 21.5272 4.89988C21.2022 4.94109 20.8713 4.9666 20.5325 4.97445C20.2725 4.98426 20.0578 4.99015 19.8884 4.99015L18.9804 4.97445V5.29041C19.1872 5.31592 19.8589 5.33947 20.109 5.35714C20.7531 5.43564 21.0643 5.72805 21.3578 6.14017C21.3854 6.19905 21.4583 6.32268 21.5784 6.50912C21.6986 6.69556 21.8266 6.90358 21.9645 7.12927C22.1181 7.34514 22.26 7.55317 22.39 7.74942C22.5219 7.94567 22.6184 8.07912 22.6834 8.14781C22.8706 8.39312 23.0991 8.62077 23.3709 8.82683C23.6427 9.03289 24.0012 9.19578 24.4463 9.31353C24.8915 9.43128 25.4706 9.49211 26.1856 9.49211H27.1212V9.184C26.2841 9.11728 25.6026 8.96224 25.0766 8.26555C24.8757 8.02809 24.6729 7.79259 24.4719 7.55709C24.2848 7.30982 24.1312 7.10376 24.0071 6.93695C23.885 6.76032 23.8121 6.66023 23.7904 6.64061C23.6388 6.41492 23.4319 6.17746 23.168 5.93019C22.8548 5.6417 22.516 5.44545 22.0748 5.34732C22.6953 5.29041 23.298 5.1707 23.7845 4.95679C24.2257 4.71736 24.5645 4.42299 24.7989 4.07367C25.0333 3.71453 25.1495 3.33969 25.1495 2.94916C25.1495 2.53899 25.0471 2.18575 24.8383 1.88548C24.6433 1.57541 24.3636 1.32225 23.9992 1.12207C23.6348 0.912086 23.2054 0.757049 22.711 0.656962C22.2166 0.556875 21.6789 0.507812 21.0939 0.507812H15.1749L15.1808 0.5137Z" fill="white"/>
<path d="M49.8005 0.513691V0.829652H50.0743C50.3737 0.829652 50.6258 0.904227 50.8326 1.05338C51 1.17309 51.1044 1.31831 51.1458 1.48905V8.50301C51.1044 8.66982 51 8.81701 50.8326 8.94457C50.6238 9.10549 50.3717 9.18399 50.0743 9.18399H49.8005V9.49603H54.2639L54.2461 9.18399H54.0117C53.7123 9.18399 53.4523 9.10942 53.2317 8.95831C53.0229 8.79934 52.9205 8.60309 52.9205 8.37348V1.0259C52.9973 1.03375 53.1805 1.03571 53.4858 1.03571C53.862 1.0259 54.9454 1.0259 55.428 1.03571C55.753 1.04553 56.0504 1.09066 56.3242 1.17113C56.6098 1.23981 56.8639 1.35168 57.0845 1.50083C57.3189 1.64016 57.5001 1.81875 57.6301 2.03855C57.7601 2.25835 57.8389 2.52329 57.8645 2.83336C57.8783 2.99232 57.8724 3.14343 57.8448 3.28277C57.8192 3.4123 57.7877 3.52219 57.7483 3.61247C57.5927 4.03048 57.3701 4.34056 57.0845 4.54073C56.7989 4.73109 56.4877 4.8508 56.1489 4.89987C55.8239 4.94108 55.493 4.96659 55.1561 4.97444C54.8961 4.98425 54.6814 4.99014 54.512 4.99014L53.604 4.97444V5.2904C54.7484 5.43366 57.1712 5.50824 58.4101 4.95874C58.8513 4.71932 59.1901 4.42494 59.4245 4.07562C59.6589 3.71648 59.7751 3.34165 59.7751 2.95111C59.7751 2.54095 59.6727 2.1877 59.4639 1.88744C59.2689 1.57736 58.9892 1.3242 58.6248 1.12403C58.2604 0.91404 57.831 0.759002 57.3386 0.658915C56.8442 0.558828 56.3065 0.509766 55.7214 0.509766H49.8025L49.8005 0.513691Z" fill="white"/>
</g>
<defs>
<clipPath id="clip0_10_37">
<rect width="87.0968" height="9" fill="white" transform="translate(0.951599 0.5)"/>
</clipPath>
</defs>
</svg>
