<svg width="72" height="88" viewBox="0 0 72 88" fill="none" xmlns="http://www.w3.org/2000/svg">
<g clip-path="url(#clip0_9_28)">
<path d="M15.6906 44.9792H11.8893L23.6026 26.2379H35.6814L27.8725 44.9792H19.7513L18.1895 48.7275H26.3107L18.5018 67.4688H14.1289L12.5671 71.2171H25.3737L26.9354 67.4688H22.5625L30.3714 48.7275H42.2409C49.475 48.7275 55.3598 42.8427 55.3598 35.6086C55.3598 28.3744 49.475 22.4896 42.2409 22.4896H41.3038L48.691 4.75718C49.1346 3.69517 49.0159 2.48948 48.3787 1.53054C47.7415 0.571611 46.6701 0 45.5206 0H39.2142C36.9371 0 34.8568 1.15259 33.6511 3.08295L21.5223 22.4896H14.1289L11.7862 26.2379H19.1797L7.46631 44.9792H2.88405L0.541382 48.7275H14.1289L15.6906 44.9792ZM42.2409 26.2379C47.4072 26.2379 51.6116 30.4422 51.6116 35.6086C51.6116 40.7749 47.4072 44.9792 42.2409 44.9792H31.9331L39.742 26.2379H42.2409ZM36.8309 5.06953C37.3494 4.24179 38.2396 3.74827 39.2142 3.74827H45.0521L37.2432 22.4896H25.9453L36.834 5.06953H36.8309Z" fill="#322016"/>
<path d="M69.5283 21.6181C65.7144 18.6102 62.6221 11.8227 66.461 2.59567C66.9826 1.23693 67.6073 0.00312042 67.6073 0.00312042H63.4936C63.4936 0.00312042 63.2437 0.524755 63.0001 1.15884C58.3553 12.3224 62.3628 20.7435 67.2075 24.5637C67.6729 24.9291 67.8384 25.5288 67.6229 26.0505L53.4076 60.1628C53.0015 61.1343 52.1269 61.809 51.118 61.9245C39.8639 63.1927 31.096 71.9324 29.7935 83.1803C29.7217 83.7926 29.1907 84.2517 28.5566 84.2517H2.10316L0.541382 88H28.5597C31.096 88 33.2294 86.1134 33.5199 83.6114C34.6194 74.1064 42.0316 66.7192 51.5397 65.6478C53.898 65.3823 55.9408 63.833 56.8685 61.6028L71.0838 27.4904C71.9428 25.432 71.3025 23.0175 69.5314 21.6181H69.5283Z" fill="#322016"/>
<path d="M52.7454 81.2063C53.2764 81.2063 53.6918 81.3343 53.9948 81.5905C54.2978 81.8466 54.4477 82.1902 54.4477 82.6212C54.4477 83.0804 54.2978 83.4302 53.9948 83.6739C53.6918 83.9175 53.2764 84.0393 52.7516 84.0393L52.6517 84.0956H51.6428V85.8916H50.6776V81.2063H52.7423H52.7454ZM52.6298 83.349C52.9047 83.349 53.1077 83.2928 53.2452 83.1835C53.3795 83.071 53.4482 82.8992 53.4482 82.6681C53.4482 82.4369 53.3795 82.2651 53.2452 82.1527C53.1109 82.0403 52.9047 81.9872 52.6298 81.9872H51.6428V83.349H52.6298ZM53.2046 83.5552L54.7226 85.8916H53.6231L52.3675 83.8394L53.2046 83.5552Z" fill="#322016"/>
<path d="M52.3799 88C49.9248 88 47.9289 86.004 47.9289 83.5489C47.9289 81.0938 49.9248 79.0979 52.3799 79.0979C54.8351 79.0979 56.831 81.0938 56.831 83.5489C56.831 86.004 54.8351 88 52.3799 88ZM52.3799 79.7101C50.2622 79.7101 48.5411 81.4312 48.5411 83.5489C48.5411 85.6667 50.2622 87.3878 52.3799 87.3878C54.4977 87.3878 56.2188 85.6667 56.2188 83.5489C56.2188 81.4312 54.4977 79.7101 52.3799 79.7101Z" fill="#322016"/>
</g>
<defs>
<clipPath id="clip0_9_28">
<rect width="70.9173" height="88" fill="white" transform="translate(0.541382)"/>
</clipPath>
</defs>
</svg>
