<svg width="113" height="40" viewBox="0 0 113 40" fill="none" xmlns="http://www.w3.org/2000/svg">
<path fill-rule="evenodd" clip-rule="evenodd" d="M15.1598 1.77375C7.92648 10.267 0.991129 20.7994 0.921585 28.672C0.8945 31.6341 1.8403 34.22 4.10889 36.1786C7.37379 38.9994 10.971 39.9941 14.5507 40C19.7819 40.0073 24.9764 37.8972 29.0437 36.2701C35.8934 33.5312 111.611 0.655364 111.611 0.655364C112.341 0.289402 112.204 -0.166585 111.29 0.061044C110.921 0.153266 28.8599 22.3884 28.8599 22.3884C27.3055 22.8279 25.6994 23.0579 24.0841 23.072C17.7775 23.1094 12.1657 19.6093 12.2111 12.2337C12.2287 9.3477 13.1123 5.8674 15.1598 1.77375Z" fill="#4A4A4A"/>
</svg>
