<svg width="81" height="56" viewBox="0 0 81 56" fill="none" xmlns="http://www.w3.org/2000/svg">
<g clip-path="url(#clip0_34_13)">
<path d="M52.9156 36.5907L36.4821 7.87833L48.2879 1.06104L68.7229 36.5907H52.9156Z" fill="#4A4A4A"/>
<path d="M9.1438 32.5679L20.9497 25.7046L27.1962 36.5907H11.4347L9.1438 32.5679Z" fill="#4A4A4A"/>
<path d="M32.3126 54.9084H35.6726V41.2432H32.3126V54.9084Z" fill="#4A4A4A"/>
<path d="M74.4197 55.2309C70.6626 55.2309 68.4022 53.2809 68.28 50.5325H71.8233C71.8233 51.3923 72.3579 52.6514 74.6488 52.6974C76.1761 52.6974 76.8939 51.7915 76.8939 51.1159C76.8022 50.0411 75.4582 49.949 74.0226 49.7187C72.587 49.4884 71.3651 49.2274 70.4793 48.7667C69.3491 48.1833 68.5855 46.9242 68.5855 45.4809C68.5855 43.0396 70.6931 41.105 74.2059 41.105C77.6117 41.105 79.7652 42.9014 79.9943 45.5731H76.5731C76.5426 44.8514 76.4052 43.7152 74.3891 43.7152C73.0299 43.7152 72.1288 43.9916 72.0524 44.9435C72.0524 46.3408 74.8779 46.2486 77.0772 46.8321C79.1848 47.3695 80.5288 48.69 80.5288 50.5325C80.5288 53.9258 77.795 55.2309 74.4197 55.2309Z" fill="#4A4A4A"/>
<path d="M22.981 20.3768L34.7868 13.5288L48.0283 36.5909H35.6726V39.9688H32.3126V36.5755L22.981 20.3768Z" fill="#4A4A4A"/>
<path d="M23.2864 55.2309C19.3766 55.2309 16.1998 52.0218 16.1998 48.1372C16.1998 44.2065 19.3766 41.105 23.2864 41.105C24.7679 41.105 26.1119 41.5042 27.2879 42.3179V36.5908H30.6479V54.9084H27.2879V54.0025C26.1119 54.7702 24.7679 55.2309 23.2864 55.2309ZM19.4224 48.1372C19.4224 50.2561 21.2246 52.0218 23.378 52.0218C25.4857 52.0218 27.2879 50.2561 27.2879 48.1372C27.2879 46.0183 25.4857 44.2065 23.378 44.2065C21.2246 44.2065 19.4224 46.0183 19.4224 48.1372Z" fill="#4A4A4A"/>
<path d="M48.1199 36.5908H51.4341V54.9084H48.1199V54.0025C46.9897 54.7702 45.5999 55.2309 44.0726 55.2309C40.2086 55.2309 37.0319 52.0218 37.0319 48.1372C37.0319 44.2065 40.2086 41.105 44.0726 41.105C45.5999 41.105 46.9439 41.5042 48.1199 42.3179V36.5908ZM40.3002 48.1372C40.3002 50.2561 42.1024 52.0218 44.1643 52.0218C46.3177 52.0218 48.1199 50.2561 48.1199 48.1372C48.1199 46.0183 46.3177 44.2065 44.1643 44.2065C42.1024 44.2065 40.3002 46.0183 40.3002 48.1372Z" fill="#4A4A4A"/>
<path d="M59.6051 55.2309C55.7563 55.2309 52.5643 52.0218 52.5643 48.1372C52.5643 44.2065 55.7563 41.105 59.6051 41.105C61.0866 41.105 62.4764 41.5042 63.6066 42.318V41.2278H66.9666V54.9084H63.6066V54.0025C62.4764 54.7702 61.1324 55.2309 59.6051 55.2309ZM55.8327 48.1372C55.8327 50.2561 57.6349 52.0218 59.7425 52.0218C61.8502 52.0218 63.6066 50.2561 63.6066 48.1372C63.6066 46.0183 61.8502 44.2065 59.7425 44.2065C57.6349 44.2065 55.8327 46.0183 55.8327 48.1372Z" fill="#4A4A4A"/>
<path d="M3.84415 48.1372C3.84415 50.2561 5.64634 52.0218 7.75399 52.0218C9.90745 52.0218 11.7096 50.2561 11.7096 48.1372C11.7096 46.0183 9.90745 44.2065 7.75399 44.2065C5.64634 44.2065 3.84415 46.0183 3.84415 48.1372ZM7.66235 55.2309C3.79833 55.2309 0.606323 52.0218 0.606323 48.1372C0.606323 44.2065 3.79833 41.105 7.66235 41.105C9.14381 41.105 10.5336 41.5042 11.7096 42.318V41.2278H15.0238V54.9084H11.7096V54.0025C10.5794 54.7702 9.18963 55.2309 7.66235 55.2309Z" fill="#4A4A4A"/>
</g>
<defs>
<clipPath id="clip0_34_13">
<rect width="80.7692" height="56" fill="white" transform="translate(0.115479)"/>
</clipPath>
</defs>
</svg>
